# xmcd
#
# Track frame offsets:
#	150
#	15793
#	30120
#	48930
#	62985
#	77742
#	95231
#	115113
#	134708
#	151034
#	169475
#	187429
#	209039
#	228628
#	246867
#
# Disc length: 3579 seconds
#
# Revision: 1
# Processed by: cddbd v1.5.2PL0 Copyright (c) Steve Scherf et al.
# Submitted via: EasyCDDAExtractor 5.0.6
#
DISCID=d10df90f
DTITLE=Natalia Barbu - Intre ieri si azi
DYEAR=2001
DGENRE=Soul
TTITLE0=Nu ma opri
TTITLE1=Joc de o zi
TTITLE2=Intre ieri si azi
TTITLE3=Du-ma departe
TTITLE4=As vrea
TTITLE5=Prima dragoste
TTITLE6=Te iubesc
TTITLE7=Vreau sa te vad
TTITLE8=Be mine
TTITLE9=I cry
TTITLE10=Toamma dragostei
TTITLE11=Ave Maria
TTITLE12=Dve mechty
TTITLE13=Un tainic vis
TTITLE14=Lacrima mea
EXTD=
EXTT0=
EXTT1=
EXTT2=
EXTT3=
EXTT4=
EXTT5=
EXTT6=
EXTT7=
EXTT8=
EXTT9=
EXTT10=
EXTT11=
EXTT12=
EXTT13=
EXTT14=
PLAYORDER=
